Coordinates
version=1
nRows=17
nColumns=34
inDegrees=yes

Units are S.I. units (second, meters, Newtons, ...)
If the header above contains a line with 'inDegrees', this indicates whether rotational values are in degrees (yes) or radians (no).

endheader
time	pelvis_tilt	pelvis_list	pelvis_rotation	pelvis_tx	pelvis_ty	pelvis_tz	hip_flexion_r	hip_adduction_r	hip_rotation_r	knee_angle_r	ankle_angle_r	subtalar_angle_r	mtp_angle_r	hip_flexion_l	hip_adduction_l	hip_rotation_l	knee_angle_l	ankle_angle_l	subtalar_angle_l	mtp_angle_l	lumbar_extension	lumbar_bending	lumbar_rotation	arm_flex_r	arm_add_r	arm_rot_r	elbow_flex_r	pro_sup_r	arm_flex_l	arm_add_l	arm_rot_l	elbow_flex_l	pro_sup_l
      0.00000000	     -0.07294276	     -1.83531414	     -2.58860255	      1.57365819	      0.87164570	     -0.09402569	     -2.30151376	     -2.63062842	     -3.97481273	      6.32751998	      5.18508762	     -6.70466966	      0.00000000	     -3.64996597	     -6.30028753	     -3.86807110	      4.78022778	     11.50689757	     -0.72458624	      0.00000000	     -7.13120721	      2.15997321	     -1.80543388	      7.57558086	     -8.48436195	     36.18332745	     72.58346004	     87.61032277	      5.72764684	     -5.79237991	     33.87164565	     61.54422665	     79.61961015
      0.01666670	     -0.76717064	     -1.94120238	     -2.32927240	      1.57471872	      0.86955786	     -0.09508852	     -1.71285445	     -2.10365469	     -2.76633470	      6.27110168	      8.09524116	     -5.48747900	      0.00000000	     -2.50837486	     -6.01406475	     -2.57240313	      4.69810154	     11.69703243	     -0.68682834	      0.00000000	     -5.65130776	      2.66855078	     -2.60936956	      7.34314242	     -8.38289968	     35.58423787	     72.68240348	     87.45551615	      4.97582407	     -6.31972937	     32.92432035	     62.39110901	     79.27397104
      0.03333330	     -0.85642427	     -1.55888178	     -2.33377851	      1.57409120	      0.86875541	     -0.09487830	     -1.80493794	     -2.53616357	     -2.85512694	      5.65538746	      8.39953371	     -5.59801068	      0.00000000	     -2.50594643	     -5.63795527	     -2.42380265	      4.52483565	     11.64225125	     -0.52816273	      0.00000000	     -5.55911490	      2.13456379	     -2.47035327	      7.50568511	     -8.32557731	     35.55186416	     72.58470500	     87.48476843	      5.37377681	     -6.86046740	     32.61377688	     62.37240533	     79.23395904
      0.05000000	     -0.67392974	     -1.27245633	     -2.14024548	      1.57371776	      0.86907162	     -0.09476552	     -2.11702887	     -2.95118984	     -2.66771732	      5.39168135	      8.78422768	     -5.65136109	      0.00000000	     -3.10170513	     -5.30377596	     -1.97370613	      3.86047713	     11.58574344	     -0.41768227	      0.00000000	     -5.59783800	      1.66643241	     -2.34554133	      7.30710453	     -8.22242385	     35.75222920	     72.38939663	     87.56505252	      5.49880622	     -7.06611549	     32.57261217	     62.34127661	     79.25913243
      0.06666670	      0.00079609	     -1.18131226	     -2.13414249	      1.57307210	      0.86972950	     -0.09446307	     -2.99526508	     -3.07118022	     -2.48052866	      5.03856403	      8.99935658	     -5.77758607	      0.00000000	     -4.20759761	     -5.13854550	     -1.56682458	      3.17306923	     11.15264666	     -0.90835391	      0.00000000	     -6.50513332	      1.55186790	     -2.16200349	      7.73818992	     -8.28522213	     36.57677455	     72.60586221	     87.94400973	      5.95201770	     -7.17896595	     33.22925027	     62.45480529	     79.61988213
      0.08333330	      0.24107506	     -1.12451707	     -2.00165279	      1.57285788	      0.86961280	     -0.09409028	     -3.35894234	     -3.07866138	     -2.31807912	      4.81339579	      9.07157615	     -6.05705603	      0.00000000	     -4.57042485	     -5.06456152	     -0.99518527	      2.93358090	     11.08032876	     -1.32992199	      0.00000000	     -6.76847856	      1.45529614	     -2.09434468	      7.90842088	     -8.57005985	     37.65263284	     73.52710866	     88.38764156	      6.27663176	     -7.37016912	     34.16933755	     62.77443786	     80.22374454
      0.10000000	      0.39526008	     -1.09136233	     -1.92318231	      1.57271101	      0.86898450	     -0.09362810	     -3.62794041	     -3.07773887	     -2.15418081	      4.62254693	      9.07280852	     -6.38833235	      0.00000000	     -4.82878581	     -5.04208650	     -0.65076067	      2.73282699	     10.88620106	     -1.63870664	      0.00000000	     -6.92480861	      1.38702462	     -2.00371392	      8.02826799	     -8.76047252	     38.43845794	     74.28109745	     88.78345206	      6.59644073	     -7.54844994	     34.97356309	     62.99490789	     80.93047030
      0.11666670	      0.40749645	     -1.08356957	     -1.89228186	      1.57255112	      0.86860622	     -0.09311704	     -3.70356588	     -3.03925303	     -2.12751439	      4.53092857	      9.12350797	     -6.42091450	      0.00000000	     -4.83877620	     -5.07666464	     -0.57293858	      2.74198059	     10.85222560	     -1.62669513	      0.00000000	     -6.84935628	      1.33253486	     -1.94872711	      8.00099112	     -8.60635628	     38.54644113	     74.38340789	     88.80676010	      6.67143810	     -7.54603583	     34.99592519	     63.02830091	     80.97029243
      0.13333330	      0.38537083	     -1.05582019	     -1.84331759	      1.57235196	      0.86877912	     -0.09283002	     -3.78491791	     -3.02159531	     -2.13148248	      4.32037048	      9.18653633	     -6.52493612	      0.00000000	     -4.81618040	     -5.08720141	     -0.44626868	      2.73058983	     10.73937916	     -1.61617315	      0.00000000	     -6.90008317	      1.30623673	     -1.94089659	      7.84156501	     -8.54863845	     38.76692629	     74.56303305	     88.84486744	      6.78079523	     -7.66352568	     35.04696441	     63.05327383	     81.03600040
      0.15000000	      0.55741217	     -1.03707283	     -1.59304122	      1.57196232	      0.86971807	     -0.09299140	     -4.14610255	     -2.99486801	     -2.25208045	      4.05225100	      8.74437440	     -7.01060083	      0.00000000	     -4.98110058	     -5.09911135	      0.04659380	      2.65101300	     10.31712431	     -1.95105500	      0.00000000	     -7.13704370	      1.27352182	     -2.10545168	      7.88241916	     -9.05807715	     39.55296455	     75.81037490	     89.05382954	      7.00505486	     -7.90651454	     35.71130870	     63.31701529	     81.51746692
      0.16666670	      0.51194999	     -1.03950633	     -1.65401528	      1.57150606	      0.87123933	     -0.09259577	     -4.11134264	     -2.95468315	     -2.23852021	      3.94188640	      8.75792063	     -7.02120936	      0.00000000	     -4.93429955	     -5.12805042	      0.07649638	      2.65111466	     10.26900953	     -1.94799745	      0.00000000	     -7.24897831	      1.30061176	     -2.07710452	      7.82932843	     -9.08571357	     39.58392090	     75.80500949	     89.06200664	      7.10007861	     -8.06360053	     35.66184518	     63.29867491	     81.53791789
      0.18333330	      0.48565803	     -1.06100511	     -1.58316797	      1.57108873	      0.87229753	     -0.09207847	     -4.13434819	     -2.86038078	     -2.20896002	      3.78875762	      8.70162719	     -7.01812922	      0.00000000	     -4.85743912	     -5.21746492	      0.10027152	      2.67124501	     10.08544607	     -1.92563362	      0.00000000	     -7.35839210	      1.30211042	     -2.02153054	      7.78309722	     -9.13848449	     39.62392384	     75.83421366	     89.07455241	      7.29786871	     -8.30336247	     35.56105271	     63.29274648	     81.57372558
      0.20000000	      0.49814178	     -1.08795481	     -1.51263030	      1.57059039	      0.87253645	     -0.09174949	     -4.21294315	     -2.77148509	     -2.25292483	      3.58615553	      8.53436593	     -7.04527589	      0.00000000	     -4.80958167	     -5.30475755	      0.12253813	      2.70118452	      9.76645933	     -1.90154660	      0.00000000	     -7.50306564	      1.31840603	     -2.00037699	      7.75101557	     -9.22096741	     39.64676522	     75.91593110	     89.09085105	      7.54791769	     -8.46365662	     35.46033353	     63.34331525	     81.64366051
      0.21666670	      0.50962789	     -1.07507336	     -1.51828957	      1.57012307	      0.87135132	     -0.09175826	     -4.20258984	     -2.77240874	     -2.25749386	      3.57081107	      8.52987425	     -7.04798131	      0.00000000	     -4.81246585	     -5.32249948	      0.12522894	      2.70063962	      9.75821113	     -1.90102554	      0.00000000	     -7.50998697	      1.32008009	     -2.00207418	      7.74813208	     -9.22502790	     39.64663292	     75.91789196	     89.09122219	      7.56003493	     -8.46984622	     35.45499234	     63.34664577	     81.64607100
      0.23333330	      0.45402490	     -1.10559768	     -1.54521852	      1.56937271	      0.87020239	     -0.09192441	     -4.16682456	     -2.72130492	     -2.31384388	      3.40416920	      8.45549501	     -7.07966383	      0.00000000	     -4.73943864	     -5.38069012	      0.14990690	      2.63857632	      9.61531903	     -1.88070574	      0.00000000	     -7.64142728	      1.36702503	     -1.98560818	      7.75296031	     -9.28340021	     39.63219892	     75.94201899	     89.09337754	      7.91715524	     -8.67348135	     35.28280042	     63.42890552	     81.67037280
      0.25000000	      0.46772754	     -1.15593795	     -1.44273504	      1.56838646	      0.86954982	     -0.09215795	     -4.16787321	     -2.65595999	     -2.37744452	      3.35244733	      8.24568842	     -7.12598068	      0.00000000	     -4.66645640	     -5.48440862	      0.20860585	      2.62631298	      9.34971934	     -1.85439307	      0.00000000	     -7.79348213	      1.42182966	     -1.87902461	      7.86219391	     -9.33833570	     39.56544001	     76.07082954	     89.09369998	      8.32808843	     -8.80890183	     35.06000481	     63.68712499	     81.73243031
      0.26666670	      0.42070342	     -1.15448694	     -1.37169505	      1.56756792	      0.86963135	     -0.09233914	     -4.11161473	     -2.65672830	     -2.40320010	      3.31391654	      8.17599031	     -7.16017491	      0.00000000	     -4.58672412	     -5.49492747	      0.20929534	      2.52310002	      9.29146927	     -1.87403107	      0.00000000	     -7.94191520	      1.49955851	     -1.82550135	      7.95077149	     -9.36837136	     39.50764227	     76.14538412	     89.09070410	      8.48901004	     -8.85811509	     34.95849431	     63.81950476	     81.76273002
